<?xml version="1.0" encoding="UTF-8"?>
<svg fill="none" viewBox="0 0 16 16" xmlns="http://www.w3.org/2000/svg">
    <path d="m10 7.9999c0 1.1027-0.89733 2-2 2s-2-0.89733-2-2 0.89733-2 2-2 2 0.89733 2 2zm6-0.29933s-2.8347 4.966-7.99 4.966c-4.7867 0-8.01-4.966-8.01-4.966s2.964-4.3673 8.01-4.3673c5.1293 0 7.99 4.3673 7.99 4.3673zm-4.6667 0.29933c0-1.8407-1.492-3.3333-3.3333-3.3333-1.8407 0-3.3333 1.4927-3.3333 3.3333 0 1.8413 1.4927 3.3334 3.3333 3.3334 1.8413 0 3.3333-1.492 3.3333-3.3334z" fill="#8E8F8F"/>
</svg>
