<svg width="141" height="43" viewBox="0 0 141 43" fill="none" xmlns="http://www.w3.org/2000/svg">
<path d="M82.34 7.52C82.34 6.44 82.12 5.64 81.68 5.12C81.24 4.58667 80.64 4.32667 79.88 4.34H78.92V13.72C78.92 14.08 78.9133 14.4267 78.9 14.76C78.8867 15.0933 78.8667 15.3467 78.84 15.52C79.0667 15.4933 79.3533 15.48 79.7 15.48C80.06 15.4667 80.3067 15.46 80.44 15.46V17H74.6V15.68C74.9067 15.6667 75.16 15.6267 75.36 15.56C75.5733 15.4933 75.7333 15.34 75.84 15.1C75.96 14.86 76.02 14.4733 76.02 13.94V4.36H75.1C74.34 4.37333 73.74 4.63333 73.3 5.14C72.86 5.64667 72.64 6.44 72.64 7.52H71.32L71.42 3H83.54L83.66 7.52H82.34ZM88.5478 17.06L85.3878 10.12C85.2411 9.78667 85.1345 9.53333 85.0678 9.36C85.0145 9.18667 84.9745 9.04 84.9478 8.92C84.9345 8.78667 84.9078 8.64 84.8678 8.48L84.1278 8.52V7H88.8078V8.28C88.3945 8.29333 88.1745 8.46 88.1478 8.78C88.1345 9.08667 88.1945 9.44 88.3278 9.84L89.3678 12.4C89.4745 12.6533 89.5811 12.9133 89.6878 13.18C89.7945 13.4467 89.9011 13.7133 90.0078 13.98H90.0278C90.1345 13.7 90.2345 13.42 90.3278 13.14C90.4345 12.86 90.5345 12.58 90.6278 12.3L91.4878 9.86C91.6078 9.52667 91.7145 9.26 91.8078 9.06C91.9145 8.86 92.0278 8.65333 92.1478 8.44L90.9078 8.52V7H94.7078V8.28C94.4011 8.33333 94.1278 8.50667 93.8878 8.8C93.6478 9.08 93.4411 9.4 93.2678 9.76C93.0945 10.1067 92.9545 10.4133 92.8478 10.68L90.2878 17.06H88.5478ZM95.5895 15.7C96.1362 15.7 96.4695 15.54 96.5895 15.22C96.7095 14.8867 96.7695 14.4533 96.7695 13.92V10.6C96.7695 10.36 96.7762 10.0867 96.7895 9.78C96.8029 9.46 96.8229 9.15333 96.8495 8.86C96.6362 8.87333 96.3829 8.88667 96.0895 8.9C95.8095 8.9 95.5962 8.90667 95.4495 8.92V7.4C96.3695 7.4 97.0762 7.33333 97.5695 7.2C98.0762 7.06667 98.3962 6.93333 98.5295 6.8H99.6095V13.78C99.6095 13.9667 99.6029 14.2333 99.5895 14.58C99.5762 14.9133 99.5562 15.2333 99.5295 15.54C99.7429 15.5133 99.9762 15.5 100.23 15.5C100.496 15.4867 100.696 15.48 100.83 15.48V17H95.5895V15.7ZM98.0895 5.22C97.6362 5.22 97.2629 5.06 96.9695 4.74C96.6762 4.42 96.5295 4.03333 96.5295 3.58C96.5295 3.12667 96.6829 2.74 96.9895 2.42C97.2962 2.1 97.6562 1.94 98.0695 1.94C98.4962 1.94 98.8495 2.1 99.1295 2.42C99.4229 2.74 99.5695 3.12667 99.5695 3.58C99.5695 4.03333 99.4362 4.42 99.1695 4.74C98.9029 5.06 98.5429 5.22 98.0895 5.22ZM106.733 17.32C106.159 17.32 105.599 17.2467 105.053 17.1C104.506 16.9533 104.079 16.7667 103.773 16.54L103.812 17.14H102.293L102.213 13.7H103.513C103.579 14.3133 103.899 14.8333 104.473 15.26C105.046 15.6733 105.759 15.88 106.613 15.88C106.946 15.88 107.259 15.8 107.553 15.64C107.846 15.48 107.993 15.2267 107.993 14.88C107.979 14.4933 107.773 14.2067 107.373 14.02C106.986 13.8333 106.419 13.5933 105.673 13.3C105.259 13.14 104.839 12.9733 104.413 12.8C103.999 12.6267 103.613 12.42 103.253 12.18C102.906 11.9267 102.626 11.62 102.413 11.26C102.199 10.8867 102.093 10.4333 102.093 9.9C102.093 9.38 102.219 8.87333 102.473 8.38C102.739 7.88667 103.153 7.48 103.713 7.16C104.273 6.84 104.986 6.68 105.853 6.68C106.213 6.68 106.619 6.74 107.073 6.86C107.539 6.96667 107.933 7.13333 108.253 7.36V6.78H109.773V10.32H108.473C108.353 9.62667 108.046 9.08 107.553 8.68C107.059 8.28 106.453 8.08 105.733 8.08C105.399 8.08 105.093 8.16 104.813 8.32C104.546 8.48 104.413 8.75333 104.413 9.14C104.413 9.44667 104.519 9.69333 104.733 9.88C104.946 10.0533 105.239 10.2 105.613 10.32C105.986 10.44 106.399 10.58 106.853 10.74C107.533 10.9667 108.133 11.2333 108.653 11.54C109.186 11.8467 109.606 12.22 109.913 12.66C110.219 13.0867 110.373 13.6133 110.373 14.24C110.373 14.9333 110.199 15.5067 109.853 15.96C109.506 16.4133 109.053 16.7533 108.493 16.98C107.946 17.2067 107.359 17.32 106.733 17.32ZM116.58 17.32C115.606 17.32 114.746 17.1067 114 16.68C113.253 16.24 112.673 15.6267 112.26 14.84C111.846 14.04 111.64 13.1 111.64 12.02C111.64 11.0867 111.846 10.2133 112.26 9.4C112.673 8.58667 113.253 7.93333 114 7.44C114.76 6.93333 115.64 6.68 116.64 6.68C117.2 6.68 117.746 6.76 118.28 6.92C118.813 7.06667 119.293 7.32667 119.72 7.7C120.16 8.07333 120.506 8.58 120.76 9.22C121.026 9.86 121.153 10.66 121.14 11.62L114.58 11.74C114.58 12.46 114.666 13.1067 114.84 13.68C115.026 14.2533 115.326 14.7067 115.74 15.04C116.153 15.3733 116.706 15.54 117.4 15.54C117.8 15.54 118.273 15.4333 118.82 15.22C119.38 14.9933 119.886 14.6 120.34 14.04L121.24 14.88C120.76 15.56 120.246 16.08 119.7 16.44C119.153 16.7867 118.606 17.02 118.06 17.14C117.526 17.26 117.033 17.32 116.58 17.32ZM114.7 10.34H118.38C118.366 9.51333 118.206 8.93333 117.9 8.6C117.593 8.25333 117.206 8.08 116.74 8.08C116.153 8.08 115.693 8.29333 115.36 8.72C115.026 9.13333 114.806 9.67333 114.7 10.34ZM122.601 15.7C123.148 15.7 123.481 15.54 123.601 15.22C123.721 14.8867 123.781 14.4533 123.781 13.92V10.56C123.781 10.32 123.788 10.0533 123.801 9.76C123.815 9.45333 123.835 9.15333 123.861 8.86C123.648 8.87333 123.395 8.88667 123.101 8.9C122.821 8.9 122.608 8.90667 122.461 8.92V7.4H123.261C123.781 7.4 124.255 7.33333 124.681 7.2C125.121 7.06667 125.408 6.93333 125.541 6.8H126.521C126.548 6.93333 126.568 7.18667 126.581 7.56C126.595 7.92 126.601 8.24 126.601 8.52C127.135 7.85333 127.635 7.38 128.101 7.1C128.568 6.82 129.041 6.68 129.521 6.68C129.988 6.68 130.395 6.81333 130.741 7.08C131.088 7.33333 131.261 7.75333 131.261 8.34C131.261 8.54 131.215 8.75333 131.121 8.98C131.028 9.19333 130.881 9.37333 130.681 9.52C130.481 9.66667 130.208 9.74 129.861 9.74C129.595 9.74 129.321 9.66 129.041 9.5C128.761 9.34 128.601 9.03333 128.561 8.58C128.295 8.58 128.028 8.69333 127.761 8.92C127.495 9.13333 127.255 9.39333 127.041 9.7C126.841 9.99333 126.701 10.2667 126.621 10.52V13.78C126.621 13.9667 126.615 14.2333 126.601 14.58C126.588 14.9133 126.568 15.2333 126.541 15.54C126.755 15.5133 126.988 15.5 127.241 15.5C127.508 15.4867 127.708 15.48 127.841 15.48V17H122.601V15.7ZM71.08 37V35.62C71.4533 35.62 71.7533 35.5133 71.98 35.3C72.2067 35.0867 72.3933 34.8067 72.54 34.46C72.7 34.1133 72.8533 33.74 73 33.34L76.9 22.64H78.3L82.56 33.54C82.64 33.74 82.7467 34.0467 82.88 34.46C83.0133 34.86 83.0933 35.2133 83.12 35.52C83.3467 35.4933 83.56 35.48 83.76 35.48C83.9733 35.4667 84.1467 35.46 84.28 35.46V37H78.9V35.68C79.4467 35.68 79.7533 35.5133 79.82 35.18C79.8867 34.8333 79.8267 34.4133 79.64 33.92L79.24 32.82L74.9 32.9L74.58 33.84C74.5133 34.0133 74.4133 34.2733 74.28 34.62C74.16 34.9533 74.0467 35.2333 73.94 35.46C74.1533 35.4333 74.4067 35.42 74.7 35.42C75.0067 35.4067 75.2267 35.4 75.36 35.4V37H71.08ZM75.4 31.4H78.74L77.82 28.9C77.6467 28.42 77.4933 27.94 77.36 27.46C77.2267 26.9667 77.1267 26.5333 77.06 26.16H77.04C76.9867 26.3867 76.9067 26.7267 76.8 27.18C76.6933 27.6333 76.5267 28.1733 76.3 28.8L75.4 31.4ZM89.3622 42.42C88.2155 42.42 87.3089 42.2933 86.6422 42.04C85.9755 41.8 85.5022 41.48 85.2222 41.08C84.9422 40.68 84.8022 40.2533 84.8022 39.8C84.8022 39.3867 84.9355 38.9667 85.2022 38.54C85.4822 38.1133 85.9822 37.7667 86.7022 37.5C86.1555 37.3533 85.7689 37.12 85.5422 36.8C85.3289 36.4667 85.2222 36.1133 85.2222 35.74C85.2222 35.3933 85.3622 35.0067 85.6422 34.58C85.9222 34.14 86.4289 33.8067 87.1622 33.58C86.6022 33.3533 86.1422 33 85.7822 32.52C85.4222 32.04 85.2289 31.46 85.2022 30.78C85.1755 29.98 85.3755 29.2733 85.8022 28.66C86.2289 28.0333 86.7889 27.5467 87.4822 27.2C88.1755 26.8533 88.9022 26.68 89.6622 26.68C90.0089 26.68 90.4089 26.7267 90.8622 26.82C91.3155 26.9133 91.7089 27.0733 92.0422 27.3C92.1889 26.8867 92.3755 26.5 92.6022 26.14C92.8422 25.7667 93.1289 25.4667 93.4622 25.24C93.7955 25 94.1689 24.88 94.5822 24.88C95.0355 24.88 95.3755 25 95.6022 25.24C95.8422 25.4667 95.9622 25.7733 95.9622 26.16C95.9622 26.32 95.9222 26.5 95.8422 26.7C95.7755 26.8867 95.6489 27.0467 95.4622 27.18C95.2889 27.3133 95.0422 27.38 94.7222 27.38C94.5222 27.38 94.3222 27.3067 94.1222 27.16C93.9222 27 93.8022 26.8133 93.7622 26.6C93.5889 26.6533 93.4155 26.8267 93.2422 27.12C93.0689 27.4133 92.9689 27.6733 92.9422 27.9C93.7289 28.58 94.1222 29.44 94.1222 30.48C94.1222 31.2533 93.9022 31.94 93.4622 32.54C93.0355 33.1267 92.4755 33.5933 91.7822 33.94C91.1022 34.2733 90.3689 34.44 89.5822 34.44C89.4089 34.44 89.2155 34.4333 89.0022 34.42C88.7889 34.3933 88.5822 34.38 88.3822 34.38C88.0889 34.38 87.8422 34.4333 87.6422 34.54C87.4422 34.6467 87.3422 34.7933 87.3422 34.98C87.3422 35.2333 87.5355 35.4067 87.9222 35.5C88.3089 35.5933 88.9689 35.6667 89.9022 35.72C90.9289 35.7733 91.8222 35.9067 92.5822 36.12C93.3555 36.32 93.9555 36.64 94.3822 37.08C94.8089 37.52 95.0222 38.1267 95.0222 38.9C95.0222 39.4733 94.8555 39.9733 94.5222 40.4C94.1889 40.84 93.7422 41.2067 93.1822 41.5C92.6355 41.8067 92.0289 42.0333 91.3622 42.18C90.6955 42.34 90.0289 42.42 89.3622 42.42ZM89.6622 33.1C90.0222 33.1 90.3222 32.9867 90.5622 32.76C90.8155 32.5333 91.0022 32.2467 91.1222 31.9C91.2555 31.5533 91.3222 31.2 91.3222 30.84C91.3222 30.3733 91.2622 29.9267 91.1422 29.5C91.0222 29.06 90.8355 28.7067 90.5822 28.44C90.3422 28.16 90.0289 28.02 89.6422 28.02C89.1089 28.02 88.6955 28.26 88.4022 28.74C88.1089 29.22 87.9622 29.7667 87.9622 30.38C87.9622 30.8467 88.0289 31.2933 88.1622 31.72C88.2955 32.1333 88.4889 32.4667 88.7422 32.72C88.9955 32.9733 89.3022 33.1 89.6622 33.1ZM89.9422 41.04C90.8889 41.04 91.6022 40.8667 92.0822 40.52C92.5755 40.1733 92.8222 39.8133 92.8222 39.44C92.8222 38.64 91.8622 38.2 89.9422 38.12C89.6489 38.0933 89.3089 38.0733 88.9222 38.06C88.5355 38.0467 88.1955 38.0133 87.9022 37.96C87.7022 38.12 87.5489 38.32 87.4422 38.56C87.3355 38.8 87.2755 39.0333 87.2622 39.26C87.2355 39.7933 87.4622 40.22 87.9422 40.54C88.4355 40.8733 89.1022 41.04 89.9422 41.04ZM100.798 37.32C99.8249 37.32 98.9649 37.1067 98.2183 36.68C97.4716 36.24 96.8916 35.6267 96.4783 34.84C96.0649 34.04 95.8583 33.1 95.8583 32.02C95.8583 31.0867 96.0649 30.2133 96.4783 29.4C96.8916 28.5867 97.4716 27.9333 98.2183 27.44C98.9783 26.9333 99.8583 26.68 100.858 26.68C101.418 26.68 101.965 26.76 102.498 26.92C103.032 27.0667 103.512 27.3267 103.938 27.7C104.378 28.0733 104.725 28.58 104.978 29.22C105.245 29.86 105.372 30.66 105.358 31.62L98.7983 31.74C98.7983 32.46 98.8849 33.1067 99.0583 33.68C99.2449 34.2533 99.5449 34.7067 99.9583 35.04C100.372 35.3733 100.925 35.54 101.618 35.54C102.018 35.54 102.492 35.4333 103.038 35.22C103.598 34.9933 104.105 34.6 104.558 34.04L105.458 34.88C104.978 35.56 104.465 36.08 103.918 36.44C103.372 36.7867 102.825 37.02 102.278 37.14C101.745 37.26 101.252 37.32 100.798 37.32ZM98.9183 30.34H102.598C102.585 29.5133 102.425 28.9333 102.118 28.6C101.812 28.2533 101.425 28.08 100.958 28.08C100.372 28.08 99.9116 28.2933 99.5783 28.72C99.2449 29.1333 99.0249 29.6733 98.9183 30.34ZM106.82 37V35.7C107.367 35.7 107.7 35.54 107.82 35.22C107.94 34.8867 108 34.4533 108 33.92V30.56C108 30.32 108.007 30.0533 108.02 29.76C108.033 29.4533 108.053 29.1533 108.08 28.86C107.867 28.8733 107.613 28.8867 107.32 28.9C107.04 28.9 106.827 28.9067 106.68 28.92V27.4C107.6 27.4 108.307 27.3333 108.8 27.2C109.307 27.0667 109.627 26.9333 109.76 26.8H110.74C110.767 26.9733 110.78 27.1 110.78 27.18C110.78 27.26 110.78 27.34 110.78 27.42C110.793 27.4867 110.82 27.6133 110.86 27.8C111.127 27.5867 111.433 27.4 111.78 27.24C112.127 27.0667 112.473 26.9333 112.82 26.84C113.167 26.7333 113.473 26.68 113.74 26.68C114.967 26.68 115.833 27.0333 116.34 27.74C116.86 28.4333 117.12 29.5533 117.12 31.1V33.78C117.12 33.9667 117.113 34.2333 117.1 34.58C117.087 34.9133 117.067 35.2333 117.04 35.54C117.267 35.5133 117.507 35.5 117.76 35.5C118.013 35.4867 118.207 35.48 118.34 35.48V37H113.1V35.7C113.66 35.7 114 35.54 114.12 35.22C114.24 34.8867 114.3 34.4533 114.3 33.92L114.28 31.08C114.28 30.2133 114.153 29.5733 113.9 29.16C113.66 28.7333 113.247 28.52 112.66 28.52C112.327 28.52 111.993 28.5933 111.66 28.74C111.34 28.8867 111.067 29.06 110.84 29.26V33.78C110.84 33.9667 110.833 34.2333 110.82 34.58C110.807 34.9133 110.787 35.2333 110.76 35.54C110.973 35.5133 111.207 35.5 111.46 35.5C111.727 35.4867 111.927 35.48 112.06 35.48V37H106.82ZM124.255 37.32C123.362 37.32 122.542 37.12 121.795 36.72C121.048 36.32 120.448 35.74 119.995 34.98C119.555 34.22 119.335 33.3 119.335 32.22C119.335 31.2067 119.555 30.2867 119.995 29.46C120.435 28.62 121.042 27.9467 121.815 27.44C122.602 26.9333 123.508 26.68 124.535 26.68C125.388 26.68 126.095 26.8133 126.655 27.08C127.228 27.3333 127.655 27.6733 127.935 28.1C128.228 28.5133 128.375 28.9533 128.375 29.42C128.375 29.8067 128.255 30.1533 128.015 30.46C127.788 30.7533 127.462 30.9067 127.035 30.92C126.528 30.9333 126.175 30.7933 125.975 30.5C125.775 30.1933 125.675 29.9 125.675 29.62C125.675 29.5 125.695 29.36 125.735 29.2C125.775 29.0267 125.835 28.8733 125.915 28.74C125.768 28.4467 125.535 28.26 125.215 28.18C124.895 28.1 124.642 28.0667 124.455 28.08C123.815 28.12 123.288 28.44 122.875 29.04C122.462 29.64 122.255 30.5067 122.255 31.64C122.255 32.3067 122.335 32.9333 122.495 33.52C122.668 34.0933 122.948 34.5667 123.335 34.94C123.722 35.3133 124.242 35.5133 124.895 35.54C125.455 35.5533 126.002 35.42 126.535 35.14C127.068 34.86 127.522 34.48 127.895 34L128.815 34.9C128.335 35.5667 127.835 36.0733 127.315 36.42C126.795 36.7667 126.275 37 125.755 37.12C125.248 37.2533 124.748 37.32 124.255 37.32ZM132.026 42.42C131.52 42.42 131.086 42.2667 130.726 41.96C130.38 41.6667 130.206 41.2733 130.206 40.78C130.206 40.42 130.32 40.1 130.546 39.82C130.786 39.5533 131.093 39.4133 131.466 39.4C131.76 39.3867 132.006 39.48 132.206 39.68C132.42 39.8933 132.526 40.18 132.526 40.54C132.526 40.58 132.526 40.62 132.526 40.66C132.526 40.7 132.52 40.7467 132.506 40.8C132.533 40.8 132.566 40.7933 132.606 40.78C132.846 40.7 133.113 40.3533 133.406 39.74C133.713 39.1133 133.98 38.3733 134.206 37.52L131.046 31.18C130.673 30.4333 130.426 29.8733 130.306 29.5C130.2 29.1133 130.126 28.7733 130.086 28.48L129.166 28.52V27H134.146V28.28C133.653 28.3333 133.38 28.52 133.326 28.84C133.286 29.16 133.346 29.4933 133.506 29.84L135.466 34.32C135.6 33.9733 135.773 33.44 135.986 32.72C136.2 31.9867 136.453 31.1933 136.746 30.34C136.826 30.0867 136.94 29.7667 137.086 29.38C137.246 28.98 137.413 28.6733 137.586 28.46L136.446 28.52V27H140.006V28.28C139.593 28.3733 139.246 28.6267 138.966 29.04C138.7 29.4533 138.46 29.96 138.246 30.56L135.746 37.7C135.373 38.78 135.02 39.6667 134.686 40.36C134.353 41.0667 133.98 41.5867 133.566 41.92C133.153 42.2533 132.64 42.42 132.026 42.42Z" fill="black"/>
<path d="M36.3197 31.8181C36.2751 31.5818 36.0688 31.4107 35.8283 31.4107H23.422C23.2429 31.4107 23.0774 31.5065 22.9883 31.6619L19.835 37.157C19.7459 37.3124 19.5805 37.4082 19.4013 37.4082H8.3441C7.94942 37.4082 7.71034 36.9723 7.92243 36.6395L29.2125 3.22789C29.3043 3.08381 29.4633 2.99658 29.6342 2.99658H40.3707C40.6024 2.99658 40.8037 3.15576 40.8572 3.3812L48.7813 36.7928C48.8558 37.1069 48.6176 37.4082 48.2948 37.4082H37.7882C37.5478 37.4082 37.3414 37.2371 37.2968 37.0008L36.3197 31.8181ZM34.0003 23.0525C34.3138 23.0531 34.5505 22.7683 34.4926 22.4602L33.1987 15.5718C33.113 15.1153 32.5056 15.0122 32.2739 15.4147L28.3153 22.2935C28.1237 22.6265 28.3636 23.0422 28.7477 23.0429L34.0003 23.0525Z" fill="#FAC811"/>
<path d="M7.54184 29.6704C7.24451 30.1371 6.52168 29.8467 6.6298 29.304L9.95959 12.5914C10.0212 12.2821 9.7846 11.9937 9.46923 11.9937H0.611222C0.295266 11.9937 0.0585201 11.7043 0.121141 11.3946L1.73801 3.39846C1.78517 3.16524 1.99015 2.99756 2.22809 2.99756H23.6256C24.0203 2.99756 24.2594 3.43339 24.0473 3.76624L7.54184 29.6704Z" fill="#7099B4"/>
</svg>
