<svg width="49" height="36" viewBox="0 0 49 36" fill="none" xmlns="http://www.w3.org/2000/svg">
<path d="M36.3197 29.8181C36.2751 29.5818 36.0688 29.4107 35.8283 29.4107H23.422C23.2429 29.4107 23.0774 29.5065 22.9883 29.6619L19.835 35.157C19.7459 35.3124 19.5804 35.4082 19.4013 35.4082H8.3441C7.94942 35.4082 7.71034 34.9723 7.92243 34.6395L29.2125 1.22789C29.3043 1.08381 29.4633 0.996582 29.6342 0.996582H40.3707C40.6024 0.996582 40.8037 1.15576 40.8572 1.3812L48.7813 34.7928C48.8558 35.1069 48.6176 35.4082 48.2948 35.4082H37.7882C37.5478 35.4082 37.3414 35.2371 37.2968 35.0008L36.3197 29.8181ZM34.0003 21.0525C34.3138 21.0531 34.5505 20.7683 34.4926 20.4602L33.1987 13.5718C33.113 13.1153 32.5055 13.0122 32.2739 13.4147L28.3153 20.2935C28.1237 20.6265 28.3636 21.0422 28.7477 21.0429L34.0003 21.0525Z" fill="#FAC811"/>
<path d="M7.54184 27.6704C7.24451 28.1371 6.52168 27.8467 6.6298 27.304L9.95959 10.5914C10.0212 10.2821 9.7846 9.99374 9.46923 9.99374H0.611222C0.295266 9.99374 0.0585201 9.70433 0.121141 9.39464L1.73801 1.39846C1.78517 1.16524 1.99015 0.997559 2.22809 0.997559H23.6256C24.0203 0.997559 24.2594 1.43339 24.0473 1.76624L7.54184 27.6704Z" fill="#7099B4"/>
</svg>
